<?xml version="1.0" encoding="utf-8"?>
<!-- Generator: Adobe Illustrator 27.4.0, SVG Export Plug-In . SVG Version: 6.00 Build 0)  -->
<svg version="1.1" id="Capa_1" xmlns="http://www.w3.org/2000/svg" xmlns:xlink="http://www.w3.org/1999/xlink" x="0px" y="0px"
	 viewBox="0 0 481.89 245.44" style="enable-background:new 0 0 481.89 245.44;" xml:space="preserve">
<style type="text/css">
	.st0{stroke:#000000;stroke-miterlimit:10;}
	.st1{fill:#FFFFFF;stroke:#000000;stroke-miterlimit:10;}
</style>
<g>
	<path class="st0" d="M303.37,11.6c-6.39,0.18-11.24,3.52-13.22,9.13c-1.3,3.66-0.94,7.26,0.52,10.78c0.59,1.42,0.61,2.8,0.05,4.2
		c-0.35,0.88-0.7,1.76-1.07,2.62c-2.82,6.53-5.78,13.01-8.45,19.6c-5.29,13.05-11.09,25.88-16.51,38.88
		c-1.4,3.35-3.04,6.61-4.1,10.08c-0.7,2.31-0.12,3.67,1.87,4.98c0.62,0.41,1.29,0.76,1.95,1.1c3.1,1.61,6.36,2.83,9.59,4.15
		c5.71,2.34,11.35,4.84,17.06,7.19c2.54,1.05,4.54,0.46,6.21-1.71c1.54-2,2.48-4.29,2.96-6.78c0.5-2.57-0.67-4.33-2.71-5.64
		c-0.58-0.37-1.26-0.59-1.9-0.87c-4.54-1.92-9.09-3.8-13.61-5.76c-2.37-1.03-2.32-1.19-1.52-3.57c0.83-2.47,2.09-4.73,3.1-7.11
		c4.87-11.39,9.7-22.8,14.53-34.21c2.43-5.73,4.84-11.46,7.22-17.21c0.67-1.61,1.72-2.62,3.5-2.84c0.89-0.11,1.72-0.48,2.47-0.99
		c4.46-3.02,8.19-9.97,5.62-16.67C314.73,15.28,309.53,11.43,303.37,11.6z"/>
	<path class="st0" d="M165.23,24.05c-0.35,8.49,8.45,17.37,19.77,12.97c0.83-0.32,1.54-0.52,2.42-0.13c3.23,1.43,6.53,2.69,9.77,4.1
		c13.14,5.73,26.26,11.48,39.5,16.98c7.12,2.96,14.13,6.2,21.18,9.34c3.95,1.76,6.73,0.73,8.44-3.24c2.4-5.58,4.79-11.16,7.16-16.75
		c1.38-3.25,2.83-6.48,4.02-9.8c1.16-3.21,0.04-5.66-3.02-7.13c-1.25-0.6-2.57-1.09-3.88-1.54c-3.05-1.02-5.96-0.88-7.68,3.11
		c-2.24,5.16-4.38,10.35-6.53,15.55c-0.59,1.43-0.97,1.59-2.34,0.88c-0.66-0.35-1.29-0.79-1.98-1.03
		c-7.18-2.54-13.98-6.01-21.06-8.81c-6.24-2.47-12.33-5.35-18.5-8.01c-5.44-2.35-10.89-4.66-16.35-6.96
		c-1.77-0.75-2.79-2.01-3.43-3.85c-2.3-6.63-6.48-9.3-13.23-9.76C171.71,9.43,165.41,15.87,165.23,24.05z"/>
	<path class="st0" d="M316.74,151.27c-0.01-7.52-3.93-12.52-11.14-14.18c-2.61-0.6-5.13-0.29-7.59,0.75
		c-1.45,0.62-2.9,0.83-4.46,0.1c-6.72-3.13-13.61-5.87-20.47-8.69c-7.32-3.01-14.57-6.18-21.86-9.24
		c-8.9-3.74-17.84-7.38-26.71-11.19c-4.81-2.07-7.56-1.12-9.62,3.74c-1.24,2.93-2.47,5.87-3.64,8.83
		c-2.31,5.83-5.16,11.43-7.1,17.41c-0.85,2.63-0.08,4.69,2.32,6.09c1.6,0.93,3.29,1.66,5.03,2.26c3.12,1.08,5.84,0.08,7.13-2.96
		c2.16-5.08,4.56-10.06,6.38-15.28c0.73-2.1,0.78-2.17,2.84-1.44c6.85,2.42,13.44,5.49,20.14,8.28c9.5,3.97,18.99,7.98,28.48,11.97
		c3.48,1.46,6.94,2.99,10.47,4.35c0.95,0.37,1.5,0.82,1.79,1.75c0.64,2.06,1.58,3.97,2.86,5.71c3.71,5.03,9.75,6.78,16.01,4.82
		C311.94,162.98,317.16,157.31,316.74,151.27z"/>
	<path class="st0" d="M179.33,164.79c11.21,0.05,17.52-12.31,12.37-20.84c-0.7-1.16-0.96-2.38-0.43-3.71
		c1.62-4.07,3.17-8.17,4.84-12.21c5.78-13.93,11.67-27.81,17.37-41.77c2.2-5.39,4.68-10.67,6.55-16.19
		c1.24-3.65,0.25-5.92-3.28-7.43c-3.29-1.42-6.63-2.73-9.96-4.04c-5.65-2.22-11.09-4.97-16.86-6.89c-3.11-1.04-4.99-0.29-6.68,2.51
		c-0.94,1.55-1.48,3.26-2.03,4.96c-1.13,3.48-0.05,5.76,3.38,7.15c1.66,0.67,3.35,1.26,4.99,2c3.45,1.56,6.9,3.12,10.42,4.49
		c1.3,0.51,1.65,1.07,1.13,2.28c-0.18,0.41-0.29,0.85-0.46,1.26c-2.06,4.96-4.13,9.92-6.19,14.88
		c-5.66,13.6-11.37,27.18-16.95,40.81c-1.19,2.91-2.73,5.13-5.64,6.73c-5.61,3.09-7.87,9.58-6.07,15.89
		C167.49,160.52,173.21,164.81,179.33,164.79z"/>
	<path class="st0" d="M436.63,215.62c-0.02,0-0.04,0-0.06,0c0,5.82,0,11.64,0,17.47c0,1.01,0.07,1.93,1.44,1.94
		c5.12,0.01,10.26,0.35,15.35-0.44c6.87-1.08,12.32-4.5,15.32-10.84c4.35-9.19,1.15-23.93-14.29-27.04
		c-5.35-1.07-10.82-0.37-16.23-0.32c-1.32,0.01-1.54,0.93-1.54,2.06C436.65,204.17,436.63,209.9,436.63,215.62z"/>
	<path class="st0" d="M25.96,234.93c0,0.01,0,0.01,0,0.02c3.98,0,7.96,0.01,11.95-0.01c2.21-0.01,2.56-0.39,2.58-2.64
		c0.01-1.29,0.01-2.59,0.01-3.88c0-2.26,0-2.28-2.22-2.28c-4.88,0-9.76-0.03-14.63,0.03c-1.44,0.02-2.14-0.4-2-1.95
		c0.1-1.09,0.1-2.2-0.01-3.28c-0.14-1.41,0.31-1.92,1.8-1.88c3.53,0.1,7.07,0.01,10.6,0.04c1.2,0.01,1.75-0.42,1.69-1.66
		c-0.06-1.29-0.07-2.59,0.01-3.88c0.08-1.28-0.41-1.78-1.72-1.77c-3.48,0.05-6.97-0.03-10.45,0.01c-1.36,0.02-2.06-0.41-1.92-1.89
		c0.09-0.99,0.09-1.99,0-2.98c-0.12-1.41,0.38-1.92,1.84-1.9c4.78,0.08,9.56,0.03,14.33,0.02c1.84,0,2.02-0.19,2.04-2.07
		c0.02-1.49,0.03-2.99,0.01-4.48c-0.02-1.96-0.27-2.24-2.26-2.25c-8.06-0.02-16.13,0.02-24.19-0.01c-1.34-0.01-1.85,0.48-1.86,1.83
		c-0.05,11.44-0.33,22.88,0.07,34.32c0.08,2.28,0.29,2.51,2.66,2.52C18.19,234.94,22.07,234.93,25.96,234.93z"/>
	<path class="st0" d="M284.66,218.63c0-4.18,0-8.36,0-12.53c0-0.9-0.03-1.8-0.34-2.65c-0.3-0.82-0.78-1.56-1.71-1.72
		c-1.53-0.26-3.12-0.32-4.58,0.13c-1.09,0.34-1.01,1.73-1.54,2.61c-0.15,0.26-0.29,0.52-0.42,0.79c-0.56,1.15-1.08,1.18-1.85,0.1
		c-1.5-2.12-3.54-3.53-6.12-3.91c-6.42-0.93-14.14,3.32-16.92,9.18c-1.23,2.6-1.41,5.35-1.38,8.16c0.1,7.6,4.66,13.65,11.93,15.88
		c3.99,1.22,7.66,0.89,10.91-1.93c0.3-0.26,0.65-0.47,0.96-0.71c0.81-0.64,1.47-0.43,1.72,0.49c0.59,2.17,2.06,2.7,4.08,2.47
		c0.59-0.07,1.19,0,1.79-0.01c2.89-0.01,3.45-0.57,3.47-3.51C284.67,227.18,284.66,222.9,284.66,218.63z"/>
	<path class="st0" d="M180.52,218.78c-0.44,8.51,7.06,16.67,16.58,16.53c10.14-0.16,16.98-6.77,17.13-17.15
		c0.14-9.38-7.23-16.73-16.55-16.78C187.73,201.33,180.1,208.98,180.52,218.78z"/>
	<path class="st0" d="M81.41,221.17c3.18,0,6.37,0.03,9.55-0.01c1.75-0.02,2.32-0.52,2.37-2.18c0.1-3.22-0.25-6.38-1.86-9.24
		c-3.99-7.08-13.88-11.81-23.45-5.29c-5.26,3.59-7.11,8.96-6.8,15.2c0.33,6.77,5.53,13.31,12.12,14.99
		c5.03,1.29,9.8,0.93,14.23-2.22c3.46-2.45,3.67-3,0.98-6.21c-1.83-2.19-2.17-2.28-4.58-0.77c-1.95,1.22-4.02,2.07-6.32,1.9
		c-3.5-0.26-6.39-1.64-6.74-4.68c-0.13-1.12,0.06-1.54,1.25-1.51C75.24,221.21,78.33,221.17,81.41,221.17z"/>
	<path class="st0" d="M340.5,221.08c3.33,0.04,6.67,0.21,10-0.04c1.06-0.08,1.59-0.49,1.8-1.57c0.61-3.13,0-6.1-1.39-8.84
		c-3-5.89-7.78-9.32-14.53-9.19c-7.12,0.14-12.11,3.62-14.79,10.33c-2.78,6.95-0.9,15.04,4.6,19.41c7.11,5.66,15.09,5.52,22.64-0.08
		c1.04-0.77,1.18-1.65,0.45-2.7c-0.51-0.73-1.01-1.48-1.55-2.2c-1.59-2.13-2.27-2.29-4.43-0.79c-1.96,1.36-4.07,2.03-6.45,1.94
		c-3.35-0.13-5.78-1.61-7.11-4.77c-0.48-1.13-0.16-1.54,1.06-1.52C334.03,221.1,337.27,221.08,340.5,221.08z"/>
	<path class="st0" d="M258.32,29.93c0-1.07-0.5-1.8-1.2-2.4c-1-0.85-2.15-1.43-3.36-1.93c-3.91-1.61-7.85-3.14-11.71-4.86
		c-5.86-2.62-11.77-5.13-17.74-7.49c-1.13-0.45-1.96-0.27-2.52,0.78c-1.6,2.98-3.3,5.92-4.16,9.23c-0.97,3.71-0.82,3.88,2.84,5.31
		c6.35,2.47,12.51,5.39,18.8,7.99c3.53,1.46,7.03,3.05,10.56,4.53c2.23,0.93,3.54,0.42,4.58-1.78c0.98-2.07,1.96-4.14,2.91-6.22
		C257.79,32.06,258.23,30.99,258.32,29.93z"/>
	<path class="st0" d="M229.87,134.1c-0.67,0.05-1.71-0.18-2.09,1.06c-0.79,2.58-2.25,4.88-3.2,7.38c-1.71,4.49-2.38,4.34,2.58,6.86
		c2.83,1.44,5.83,2.54,8.78,3.75c7.04,2.88,13.93,6.1,21.04,8.81c1.57,0.6,2.53,0.19,3.34-1.17c1.74-2.92,3.01-6.05,4.1-9.26
		c0.9-2.64,0.72-2.99-1.81-4.08c-10.01-4.29-20.02-8.56-30.03-12.85C231.8,134.27,230.98,134.08,229.87,134.1z"/>
	<path class="st0" d="M315.12,70.17c-0.18-1.13-1.08-1.92-2.18-2.42c-2.72-1.23-5.46-2.4-8.23-3.53c-1.88-0.76-3.02-0.35-4.02,1.36
		c-0.5,0.86-0.96,1.75-1.34,2.66c-4.13,9.75-8.21,19.52-12.41,29.24c-0.64,1.48-0.35,2.34,0.85,3.13c0.45,0.3,0.91,0.61,1.4,0.85
		c2.77,1.35,5.78,2.13,8.54,3.52c1.38,0.69,3.52-0.28,4-1.59c3.56-9.77,8.17-19.11,11.99-28.77
		C314.27,73.24,314.89,71.87,315.12,70.17z"/>
	<path class="st0" d="M178.6,112.09c1.53,0.17,2.08-0.88,2.56-2.04c3.03-7.31,5.88-14.69,9.1-21.92c1.44-3.22,2.82-6.48,3.8-9.89
		c0.58-2.03,0.33-2.5-1.6-3.34c-2.6-1.13-5.23-2.2-7.82-3.35c-3.06-1.35-3.95-1.03-5.29,2c-4.39,9.87-8.22,19.97-12.46,29.9
		c-1.15,2.7-0.75,3.81,1.96,5.04c2.08,0.94,4.2,1.83,6.3,2.74C176.25,111.71,177.41,111.95,178.6,112.09z"/>
	<path class="st0" d="M407.71,220.81c-0.7,0-1.4-0.02-2.09,0c-1.95,0.08-2.25,0.39-2.22,2.32c0.01,0.8,0.05,1.59,0.09,2.39
		c0.19,3.9,2.91,7.72,6.62,8.97c5.43,1.82,10.61,1.29,15.33-2.15c3.74-2.73,5.61-7.9,4.5-12.35c-0.63-2.51-2.42-4.18-4.22-5.83
		c-0.71-0.65-0.98-1.15-0.35-2.13c2.27-3.54,2.3-7.27,0.2-10.87c-2.23-3.81-7.23-5.88-11.5-5.02c-4.32,0.87-7.59,4.35-8.38,8.89
		c-0.46,2.65-0.12,3.03,2.59,3.03c0.35,0,0.7-0.04,1.05,0c2.11,0.25,3.67-0.09,4.33-2.6c0.49-1.87,2.68-2.14,4.1-0.79
		c1.5,1.43,1.36,4.32-0.56,5.1c-2.26,0.92-2.59,2.41-2.34,4.45c0.07,0.54,0.07,1.1,0,1.64c-0.19,1.43,0.38,2.13,1.84,2.22
		c0.74,0.04,1.45,0.32,2.11,0.7c2.36,1.36,2.87,6.33,0.7,7.67c-1.77,1.09-3.75,0.77-5.66,0.27c-1.43-0.37-1.54-1.71-1.87-2.83
		C411.01,220.69,411.03,220.69,407.71,220.81z"/>
	<path class="st0" d="M302.58,201.36c-0.94-0.03-2.28,0.02-3.59,0.36c-0.86,0.22-1.73,0.48-2.55,0.83
		c-3.81,1.62-6.01,5.69-5.52,9.81c0.42,3.5,2.31,5.8,5.33,7.39c2.52,1.33,5.25,2.13,7.85,3.25c0.9,0.39,1.49,0.94,1.37,2.04
		c-0.12,1.09-0.68,1.67-1.72,1.97c-2.15,0.61-4.08,0.32-5.97-0.93c-3.88-2.57-3.94-2.52-7.14,1.02c-0.23,0.26-0.46,0.53-0.7,0.77
		c-0.52,0.51-0.49,1.04-0.1,1.61c1.18,1.76,2.52,3.35,4.49,4.26c5.66,2.62,11.15,2.29,16.56-0.84c3.82-2.22,4.87-6.87,4.4-10.07
		c-0.61-4.1-3.37-6.53-7.03-8.02c-2.02-0.82-4.15-1.39-6.2-2.14c-0.79-0.29-1.65-0.73-1.46-1.8c0.19-1.1,1.05-1.5,2.06-1.62
		c1.08-0.13,2.06,0.21,2.99,0.74c3.47,1.96,3.66,1.93,6.54-0.79c0.29-0.27,0.57-0.56,0.86-0.83c1.01-0.92,0.95-1.79,0.06-2.82
		C310.42,202.42,306.97,201.26,302.58,201.36z"/>
	<path class="st0" d="M220,215.47C220,215.47,220,215.47,220,215.47c-0.01,5.92,0.01,11.84-0.02,17.76
		c-0.01,1.16,0.31,1.73,1.6,1.73c7.31-0.02,14.63-0.01,21.94,0.05c1.33,0.01,1.95-0.51,1.95-1.81c0-1.84,0-3.68,0.02-5.52
		c0.01-1.3-0.59-1.87-1.92-1.85c-3.43,0.05-6.87,0.03-10.3,0.04c-3.82,0.01-3.28,0.05-3.29-3.31c-0.02-7.91-0.01-15.82-0.01-23.73
		c0-2.4-0.1-2.5-2.55-2.52c-1.84-0.01-3.69,0.08-5.52-0.01c-1.42-0.07-1.93,0.41-1.92,1.87C220.04,203.93,220,209.7,220,215.47z"/>
	<path class="st0" d="M114.97,235.24c3.5,0.35,6.75-1.39,9.95-3.27c1.05-0.62,1.34-1.41,0.6-2.47c-0.54-0.78-1.04-1.58-1.58-2.36
		c-1.98-2.86-1.98-2.86-5.12-1.46c-5.08,2.26-9.73,0.06-11.18-5.28c-1.34-4.92,1.83-9.78,6.67-10.15c2.1-0.16,4.04,0.56,5.86,1.51
		c1.15,0.59,1.94,0.4,2.71-0.58c0.98-1.26,1.99-2.48,2.67-3.95c0.45-0.96,0.3-1.61-0.51-2.34c-2.62-2.36-5.78-3.24-9.17-3.49
		c-9.16-0.66-16.75,6.87-17.69,15C97.05,226.19,104.74,235.24,114.97,235.24z"/>
	<path class="st0" d="M133.33,222.79c0.01,0,0.01,0,0.02,0c0,3.23,0.01,6.46,0,9.7c0,1.35,0.62,2.25,1.96,2.37
		c1.98,0.18,3.97,0.23,5.95-0.15c1.21-0.23,1.82-0.92,1.94-2.1c0.05-0.54,0.1-1.09,0.09-1.64c-0.01-5.82,0.01-11.64-0.08-17.45
		c-0.02-1.27,0.42-1.67,1.63-1.63c0.94,0.03,1.88-0.14,2.82-0.24c1.02-0.11,1.64-0.64,1.72-1.71c0.05-0.64,0.18-1.29,0.17-1.93
		c-0.06-4.14-0.5-5.62-5.18-5.39c-0.96,0.05-1.29-0.22-1.19-1.27c0.23-2.27,0.2-4.57-0.02-6.85c-0.17-1.75-0.54-2.03-2.2-1.57
		c-1.77,0.49-3.51,1.08-5.26,1.66c-1.67,0.56-2.5,1.7-2.38,3.5c0.06,0.89-0.07,1.8,0.03,2.68c0.16,1.39-0.36,2.02-1.77,2.07
		c-1.11,0.03-1.98,0.64-2.07,1.77c-0.14,1.63-0.16,3.28-0.04,4.91c0.1,1.36,0.75,2.38,2.38,2.24c1.22-0.11,1.5,0.56,1.49,1.65
		C133.3,216.53,133.33,219.66,133.33,222.79z"/>
	<path class="st0" d="M153.65,218.1c0,4.28-0.01,8.55,0.01,12.83c0,0.74,0.1,1.49,0.23,2.22c0.21,1.19,0.94,1.81,2.18,1.79
		c1.34-0.02,2.69,0.02,4.03,0.01c2.61-0.03,3.24-0.6,3.47-3.2c0.06-0.64,0.05-1.29,0.05-1.94c0.01-4.53-0.02-9.05,0.02-13.58
		c0.04-5.17,3.75-7.72,8.32-5.31c4.44,2.34,4.67,1.15,6.83-2.43c0.05-0.08,0.09-0.18,0.14-0.26c0.65-1,0.5-1.94-0.12-2.92
		c-1.42-2.26-3.71-3.04-6.1-3.65c-3.15-0.8-5.81-0.1-7.8,2.59c-0.38,0.52-0.76,1.05-1.16,1.55c-0.54,0.68-1.06,0.71-1.45-0.15
		c-0.23-0.5-0.44-1-0.64-1.51c-0.63-1.64-1.78-2.45-3.57-2.29c-0.54,0.05-1.09,0.04-1.64,0.09c-2.18,0.2-2.78,0.82-2.79,3.02
		C153.64,209.34,153.65,213.72,153.65,218.1z"/>
	<path class="st0" d="M358.32,217.27c-0.04,0-0.08,0-0.13,0c0,1.29,0.05,2.59-0.01,3.88c-0.18,3.98-0.25,7.95,0.14,11.92
		c0.14,1.39,0.74,1.93,2.09,1.89c1.64-0.05,3.28,0,4.93-0.02c2.23-0.03,2.6-0.34,2.65-2.62c0.08-3.73,0.06-7.46,0.08-11.19
		c0.01-1.79-0.08-3.58,0.01-5.37c0.21-4.43,3.64-6.7,7.78-5.18c0.98,0.36,1.9,0.85,2.86,1.28c0.5,0.23,1.01,0.44,1.58,0.37
		c1.73-0.22,4.14-5.55,3.15-6.97c-3.63-5.22-11.47-5.07-14.8,0.28c-0.25,0.41-0.4,1.03-0.98,1.02c-0.59-0.01-0.78-0.63-0.9-1.07
		c-0.9-3.22-3.13-3.94-6.16-3.53c-1.92,0.26-2.25,0.39-2.26,2.33C358.3,208.61,358.32,212.94,358.32,217.27z"/>
	<path class="st0" d="M45.78,212.89c0,6.12-0.01,12.24,0.01,18.36c0.01,2.76,0.94,3.69,3.63,3.7c1.04,0.01,2.09,0.03,3.13-0.04
		c2.74-0.16,3.19-0.63,3.19-3.33c0.01-11.89,0-23.78,0-35.67c0-0.3,0.01-0.6-0.02-0.9c-0.2-2.47-0.78-3.01-3.22-2.98
		c-1.44,0.02-2.89,0.04-4.33,0.11c-2.07,0.1-2.39,0.43-2.39,2.53C45.77,200.75,45.78,206.82,45.78,212.89z"/>
	<path class="st1" d="M311.41,25.46c0,4.38-3.66,8.05-7.98,8.02c-4.06-0.03-7.75-3.87-7.71-8c0.04-4.15,3.68-7.63,8-7.64
		C307.75,17.83,311.42,21.47,311.41,25.46z"/>
	<path class="st1" d="M187.13,23.85c-0.05,4.7-3.4,8.21-7.76,8.13c-4.05-0.08-7.93-4-7.84-7.93c0.1-4.25,3.64-7.82,7.7-7.79
		C183.8,16.31,187.17,19.55,187.13,23.85z"/>
	<path class="st1" d="M295.06,151.12c-0.12-5.39,3.58-7.81,7.77-8.03c4.35-0.23,7.77,3.54,7.75,7.94c-0.02,4.28-3.74,7.91-7.99,7.81
		C298.49,158.75,295.02,155.18,295.06,151.12z"/>
	<path class="st1" d="M187.16,150.33c0.15,5.67-4.44,8.18-7.85,8.2c-4.43,0.02-7.94-3.62-7.88-8.06c0.05-4.05,3.99-7.78,8.16-7.75
		C183.8,142.76,187.19,146.16,187.16,150.33z"/>
	<path class="st1" d="M446.7,215.51c0-2.84-0.02-5.67,0.01-8.51c0.01-1.7,0.23-1.87,1.95-1.72c1.09,0.09,2.18,0.19,3.26,0.37
		c7.65,1.26,11.13,10.02,6.45,16.22c-1.05,1.39-2.51,2.25-4.13,2.82c-2,0.71-4.08,0.8-6.17,0.89c-1.04,0.04-1.42-0.42-1.41-1.42
		c0.03-2.88,0.01-5.77,0.01-8.66C446.67,215.51,446.68,215.51,446.7,215.51z"/>
	<path class="st1" d="M266.61,226.47c-4.56,0-7.57-3.09-7.6-7.78c-0.02-5.02,2.96-8.55,7.22-8.55c5.01,0.01,8.4,3.38,8.35,8.33
		C274.55,223.25,271.33,226.48,266.61,226.47z"/>
	<path class="st1" d="M189.93,218.52c0.03-5.34,2.68-8.44,7.17-8.38c4.61,0.06,7.67,3.38,7.65,8.3c-0.02,4.51-3.36,8.18-7.41,8.14
		C192.79,226.54,189.9,223.4,189.93,218.52z"/>
	<path class="st1" d="M77.5,214.23c-1.74,0-3.48-0.02-5.22,0.01c-1.16,0.02-1.45-0.43-0.88-1.44c1.4-2.51,3.64-3.66,6.4-3.65
		c2.73,0.01,4.66,1.52,5.97,3.85c0.46,0.82,0.16,1.22-0.74,1.22c-1.84,0.01-3.68,0-5.52,0C77.5,214.22,77.5,214.23,77.5,214.23z"/>
	<path class="st1" d="M336.51,214.24c-1.64,0-3.28,0.02-4.93-0.01c-1.29-0.02-1.52-0.42-0.94-1.53c1.94-3.66,7.82-4.61,10.76-1.73
		c0.46,0.45,0.88,0.95,1.12,1.57c0.48,1.25,0.24,1.65-1.09,1.68C339.8,214.26,338.15,214.23,336.51,214.24
		C336.51,214.23,336.51,214.23,336.51,214.24z"/>
</g>
</svg>
